<svg width="20" height="20" viewBox="0 0 20 20" fill="none" xmlns="http://www.w3.org/2000/svg">
<path d="M18.9362 0H1.06383C0.476383 0 0 0.476383 0 1.06383V18.9362C0 19.5236 0.476383 20 1.06383 20H18.9362C19.5238 20 20 19.5236 20 18.9362V1.06383C20 0.476383 19.5238 0 18.9362 0ZM14.2404 4.54553L12.703 4.54617C11.4979 4.54617 11.2645 5.11894 11.2645 5.95957V7.81298H14.1391L14.1383 10.716H11.2645V18.1653H8.26638V10.716H5.75957V7.81298H8.26638V5.67213C8.26638 3.18766 9.78404 1.83468 12 1.83468L14.2404 1.8383V4.54553Z" fill="#1D1D24"/>
</svg>
