<svg width="20" height="20" viewBox="0 0 20 20" fill="none" xmlns="http://www.w3.org/2000/svg">
<path d="M13.7762 6.84131H15.6446C16.0537 6.84131 16.3884 6.50643 16.3884 6.09709V4.31612C16.3884 3.90656 16.0537 3.5719 15.6446 3.5719H13.7762C13.3668 3.5719 13.0321 3.90656 13.0321 4.31612V6.09709C13.0321 6.50643 13.3668 6.84131 13.7762 6.84131Z" fill="#1D1D24"/>
<path d="M10.0157 13.1804C11.8491 13.1804 13.3353 11.7404 13.3353 9.96399C13.3353 8.1876 11.8491 6.74756 10.0157 6.74756C8.18239 6.74756 6.69617 8.1876 6.69617 9.96399C6.69617 11.7404 8.18239 13.1804 10.0157 13.1804Z" fill="#1D1D24"/>
<path d="M18.9362 0H1.06383C0.476383 0 0 0.476383 0 1.06383V18.9362C0 19.5236 0.476383 20 1.06383 20H18.9362C19.5238 20 20 19.5236 20 18.9362V1.06383C20 0.476383 19.5238 0 18.9362 0ZM18.2645 16.143C18.2645 17.4006 17.3098 18.2645 16.143 18.2645H3.85702C2.69021 18.2645 1.73553 17.4006 1.73553 16.143V3.85702C1.73553 2.59936 2.69 1.73553 3.85702 1.73553H16.143C17.3096 1.73553 18.2645 2.59936 18.2645 3.85702V16.143Z" fill="#1D1D24"/>
<path d="M15.1533 10.1438C15.1533 12.8932 12.8529 15.1217 10.0159 15.1217C7.17848 15.1217 4.8783 12.893 4.8783 10.1438C4.8783 9.65101 4.95276 9.17504 5.09042 8.72546H3.57214V15.7075C3.57214 16.0688 3.8681 16.3645 4.22937 16.3645H15.7397C16.1007 16.3645 16.3967 16.0688 16.3967 15.7075V8.72546H14.9418C15.0788 9.17504 15.1533 9.6508 15.1533 10.1438Z" fill="#1D1D24"/>
</svg>
