<svg width="222" height="47" viewBox="0 0 222 47" fill="none" xmlns="http://www.w3.org/2000/svg">
<path d="M30.5225 35.752C30.5225 35.9798 30.5111 36.1507 30.4883 36.2646C30.3743 36.3102 30.2832 36.3786 30.2148 36.4697C30.1465 36.5381 30.0326 36.5609 29.873 36.5381C29.8275 36.8799 29.7135 37.1647 29.5312 37.3926C29.349 37.6204 29.1553 37.8255 28.9502 38.0078C28.7679 38.2129 28.5856 38.418 28.4033 38.623C28.221 38.8509 28.1071 39.1357 28.0615 39.4775C27.7197 39.6598 27.3779 39.8991 27.0361 40.1953C26.7171 40.5143 26.4323 40.7308 26.1816 40.8447C25.9993 40.9359 25.8057 41.0042 25.6006 41.0498C25.3955 41.1182 25.1904 41.1979 24.9854 41.2891C24.3245 41.5853 23.641 41.8929 22.9346 42.2119C22.251 42.5309 21.5332 42.6904 20.7812 42.6904H20.542C20.4508 42.7816 20.3369 42.8385 20.2002 42.8613C20.0635 42.9069 19.9268 42.9411 19.79 42.9639C19.6533 42.9867 19.5166 43.0208 19.3799 43.0664C19.2432 43.112 19.1406 43.1803 19.0723 43.2715C18.8216 43.1803 18.5482 43.1348 18.252 43.1348H18.0127C17.6253 43.2259 17.2607 43.2943 16.9189 43.3398C16.5771 43.3854 16.2126 43.4082 15.8252 43.4082C15.1416 43.4082 14.458 43.3626 13.7744 43.2715C13.0908 43.1803 12.4072 43.1006 11.7236 43.0322C11.2907 42.6904 10.9375 42.2575 10.6641 41.7334C10.3906 41.2321 10.2539 40.6966 10.2539 40.127C10.2539 39.694 10.3451 39.2839 10.5273 38.8965C10.7096 38.5319 10.9489 38.2015 11.2451 37.9053H11.3477C11.5527 37.9053 11.7578 37.8597 11.9629 37.7686C12.1908 37.6774 12.4072 37.6318 12.6123 37.6318C12.8402 37.6318 13.0225 37.723 13.1592 37.9053C13.3187 38.0876 13.4326 38.304 13.501 38.5547C13.5921 38.8053 13.6491 39.056 13.6719 39.3066C13.6947 39.5801 13.7061 39.7966 13.7061 39.9561C13.9567 40.07 14.2188 40.1383 14.4922 40.1611C14.7884 40.1839 15.0846 40.1953 15.3809 40.1953C15.6771 40.1953 16.0075 40.1725 16.3721 40.127C16.7367 40.1042 17.1012 40.0472 17.4658 39.9561C17.8532 39.8877 18.2178 39.7966 18.5596 39.6826C18.9242 39.5687 19.2318 39.4206 19.4824 39.2383C20.7357 39.1243 21.8408 38.8395 22.7979 38.3838C23.7549 37.9281 24.7689 37.3926 25.8398 36.7773C25.8854 36.5267 25.9766 36.333 26.1133 36.1963C26.2728 36.0368 26.3525 35.8089 26.3525 35.5127C26.3525 35.4671 26.3411 35.4216 26.3184 35.376C26.3184 35.3076 26.3184 35.2507 26.3184 35.2051C25.8626 34.6354 25.3841 34.1341 24.8828 33.7012C24.4043 33.2682 23.7777 32.9834 23.0029 32.8467C22.9118 32.6416 22.7637 32.4935 22.5586 32.4023C22.3535 32.2884 22.137 32.1859 21.9092 32.0947C21.6813 32.0036 21.4648 31.9124 21.2598 31.8213C21.0547 31.7074 20.9066 31.5251 20.8154 31.2744C20.2002 31.1605 19.5622 31.0238 18.9014 30.8643C18.2633 30.682 17.7165 30.363 17.2607 29.9072C16.8962 29.8844 16.543 29.8161 16.2012 29.7021C15.8822 29.5654 15.5632 29.4401 15.2441 29.3262C14.9251 29.1895 14.5947 29.0755 14.2529 28.9844C13.9111 28.8704 13.5579 28.8135 13.1934 28.8135C13.1022 28.654 12.9769 28.5286 12.8174 28.4375C12.6579 28.3464 12.4756 28.2666 12.2705 28.1982C12.0882 28.1299 11.9059 28.0615 11.7236 27.9932C11.5641 27.902 11.4388 27.7767 11.3477 27.6172C11.2565 27.64 11.1882 27.6855 11.1426 27.7539C11.097 27.8223 11.0173 27.8564 10.9033 27.8564H10.7666C10.721 27.7197 10.6299 27.6286 10.4932 27.583C10.3564 27.5146 10.2767 27.3893 10.2539 27.207C9.84375 27.1842 9.46777 27.1045 9.12598 26.9678C8.80697 26.8311 8.49935 26.6829 8.20312 26.5234C7.92969 26.3411 7.64486 26.1702 7.34863 26.0107C7.05241 25.8512 6.72201 25.7259 6.35742 25.6348C6.12956 25.4525 5.91309 25.2588 5.70801 25.0537C5.52572 24.8258 5.28646 24.7119 4.99023 24.7119C4.92188 24.7119 4.79655 24.7347 4.61426 24.7803C4.56869 24.3701 4.39779 24.0853 4.10156 23.9258C3.80534 23.7435 3.48633 23.584 3.14453 23.4473C2.91667 22.8548 2.60905 22.3307 2.22168 21.875C1.83431 21.4193 1.41276 20.9977 0.957031 20.6104C1.0026 20.4736 1.02539 20.3711 1.02539 20.3027C1.02539 20.0749 0.968424 19.8812 0.854492 19.7217C0.74056 19.5394 0.615234 19.3913 0.478516 19.2773C0.159505 18.252 0 17.2493 0 16.2695C0 14.9023 0.307617 13.6377 0.922852 12.4756C1.5153 11.2907 2.46094 10.402 3.75977 9.80957C3.78255 9.62728 3.83952 9.46777 3.93066 9.33105C4.0446 9.19434 4.11296 9.03483 4.13574 8.85254C4.34082 8.85254 4.50033 8.80697 4.61426 8.71582C4.72819 8.62467 4.83073 8.53353 4.92188 8.44238C5.03581 8.32845 5.14974 8.22591 5.26367 8.13477C5.3776 8.04362 5.52572 7.98665 5.70801 7.96387C6.57389 7.21191 7.49674 6.60807 8.47656 6.15234C9.45638 5.67383 10.459 5.18392 11.4844 4.68262C11.6895 4.59147 11.8604 4.42057 11.9971 4.16992H12.2021C12.43 4.16992 12.6009 4.12435 12.7148 4.0332C12.8516 3.91927 13.0452 3.88509 13.2959 3.93066C13.387 3.79395 13.501 3.7028 13.6377 3.65723C13.7972 3.61165 13.9453 3.57747 14.082 3.55469C14.2415 3.50911 14.3896 3.45215 14.5264 3.38379C14.6631 3.31543 14.7542 3.21289 14.7998 3.07617H15.0391C15.4264 3.07617 15.8024 3.01921 16.167 2.90527C16.5316 2.76855 16.8962 2.62044 17.2607 2.46094H17.5C17.9557 2.46094 18.3773 2.38118 18.7646 2.22168C19.1748 2.03939 19.6077 1.91406 20.0635 1.8457C20.2458 1.80013 20.4281 1.78874 20.6104 1.81152C20.7926 1.83431 20.9749 1.8457 21.1572 1.8457C21.2712 1.8457 21.4079 1.83431 21.5674 1.81152C21.7269 1.78874 21.8408 1.72038 21.9092 1.60645H21.9775C22.1143 1.60645 22.194 1.65202 22.2168 1.74316C22.2396 1.83431 22.3079 1.87988 22.4219 1.87988C22.5814 1.87988 22.7409 1.8571 22.9004 1.81152C23.0599 1.76595 23.2194 1.74316 23.3789 1.74316C24.0625 1.74316 24.7347 1.81152 25.3955 1.94824C26.0791 2.08496 26.7513 2.21029 27.4121 2.32422C27.4577 2.59766 27.5716 2.79134 27.7539 2.90527C27.959 3.01921 28.1755 3.12174 28.4033 3.21289V3.34961C28.4033 3.5319 28.4489 3.68001 28.54 3.79395C28.4489 4.11296 28.2894 4.35221 28.0615 4.51172C27.8337 4.67122 27.583 4.80794 27.3096 4.92188C27.4235 5.01302 27.4919 5.13835 27.5146 5.29785C27.5374 5.45736 27.5488 5.60547 27.5488 5.74219V6.15234L27.3779 6.11816C27.0133 6.11816 26.8311 6.28906 26.8311 6.63086C26.5348 6.44857 26.2044 6.33464 25.8398 6.28906C25.498 6.24349 25.1562 6.2207 24.8145 6.2207C24.3587 6.2207 23.8802 6.24349 23.3789 6.28906C22.8776 6.31185 22.3877 6.30046 21.9092 6.25488C21.7269 6.48275 21.499 6.65365 21.2256 6.76758C20.9521 6.85872 20.6787 6.9043 20.4053 6.9043C20.109 6.9043 19.8242 6.84733 19.5508 6.7334C19.2773 6.59668 19.0837 6.40299 18.9697 6.15234C18.8558 6.10677 18.7533 6.08398 18.6621 6.08398H18.3545C17.9899 6.08398 17.6253 6.12956 17.2607 6.2207C16.9189 6.28906 16.5658 6.38021 16.2012 6.49414C15.8366 6.58529 15.472 6.68783 15.1074 6.80176C14.7656 6.8929 14.4124 6.94987 14.0479 6.97266C13.9111 7.15495 13.7288 7.28027 13.501 7.34863C13.2731 7.41699 13.0908 7.54232 12.9541 7.72461C12.4756 7.81576 12.0426 7.97526 11.6553 8.20312C11.2679 8.4082 10.8919 8.63607 10.5273 8.88672L9.46777 9.60449C9.12598 9.83236 8.73861 10.026 8.30566 10.1855C7.98665 10.5273 7.69043 10.8008 7.41699 11.0059C7.14355 11.2109 6.79036 11.3932 6.35742 11.5527C6.08398 11.6439 5.92448 11.7806 5.87891 11.9629C5.85612 12.1452 5.76497 12.3275 5.60547 12.5098C5.46875 12.6693 5.29785 12.7946 5.09277 12.8857C4.91048 12.9541 4.75098 13.0794 4.61426 13.2617C4.50033 13.4212 4.40918 13.6149 4.34082 13.8428C4.29525 14.0479 4.23828 14.2529 4.16992 14.458C4.10156 14.6631 4.02181 14.8682 3.93066 15.0732C3.83952 15.2555 3.7028 15.415 3.52051 15.5518C3.52051 15.6429 3.50911 15.734 3.48633 15.8252C3.48633 15.9163 3.48633 15.9961 3.48633 16.0645C3.48633 16.3835 3.52051 16.7139 3.58887 17.0557C3.68001 17.3747 3.73698 17.6937 3.75977 18.0127C4.21549 18.8102 4.75098 19.5394 5.36621 20.2002C5.98145 20.8382 6.64225 21.4307 7.34863 21.9775C8.05501 22.5244 8.78418 23.0371 9.53613 23.5156C10.3109 23.9941 11.0742 24.4613 11.8262 24.917C12.0996 24.8942 12.3503 24.9284 12.5781 25.0195C12.806 25.0879 13.0452 25.1335 13.2959 25.1562C13.5693 25.3613 13.8883 25.5208 14.2529 25.6348L15.3467 25.9766C15.7113 26.0905 16.0645 26.2272 16.4062 26.3867C16.748 26.5234 17.0329 26.7171 17.2607 26.9678C17.3747 26.9906 17.4772 27.0247 17.5684 27.0703C17.6595 27.0931 17.762 27.1045 17.876 27.1045C18.0127 27.1045 18.0924 27.0589 18.1152 26.9678C19.1406 27.3551 20.1432 27.7881 21.123 28.2666C22.1029 28.7223 23.1396 29.0755 24.2334 29.3262C24.6663 29.6908 25.1449 30.0098 25.6689 30.2832C26.193 30.5566 26.7171 30.8415 27.2412 31.1377C27.7653 31.4111 28.2666 31.7188 28.7451 32.0605C29.2236 32.3796 29.6452 32.7669 30.0098 33.2227C30.0553 33.6556 30.1465 34.0771 30.2832 34.4873C30.4427 34.8747 30.5225 35.2962 30.5225 35.752Z" fill="#FF0000"/>
<path d="M51.1328 12.6807C51.1328 13.068 51.11 13.444 51.0645 13.8086C51.0417 14.1504 50.9733 14.515 50.8594 14.9023C50.6543 15.0618 50.472 15.2555 50.3125 15.4834L49.834 16.1328C49.6745 16.3379 49.5036 16.543 49.3213 16.748C49.139 16.9303 48.9111 17.0785 48.6377 17.1924C48.4098 18.195 48.125 19.1634 47.7832 20.0977C47.4642 21.0091 47.2249 21.9661 47.0654 22.9688C46.792 23.4701 46.5755 24.0169 46.416 24.6094C46.2565 25.2018 46.0856 25.8057 45.9033 26.4209C45.7438 27.0133 45.5615 27.583 45.3564 28.1299C45.1514 28.6768 44.8665 29.1667 44.502 29.5996C44.3197 30.1465 44.1374 30.7389 43.9551 31.377C43.7728 31.9922 43.4652 32.5049 43.0322 32.915C43.055 32.9606 43.0664 33.029 43.0664 33.1201C43.0664 33.3936 42.998 33.6556 42.8613 33.9062C42.7246 34.1341 42.6562 34.3734 42.6562 34.624C42.2917 34.8975 41.9385 35.2165 41.5967 35.5811C41.2777 35.9456 40.9473 36.3102 40.6055 36.6748C40.2637 37.0394 39.8991 37.3584 39.5117 37.6318C39.1243 37.9053 38.7028 38.0876 38.2471 38.1787C37.9281 37.9508 37.6318 37.6888 37.3584 37.3926C37.085 37.1191 36.7659 36.8913 36.4014 36.709C36.2191 35.6836 36.1051 34.681 36.0596 33.7012C36.0368 32.6986 35.957 31.7074 35.8203 30.7275C35.7292 30.1579 35.5811 29.611 35.376 29.0869C35.1937 28.5628 35.1025 28.0273 35.1025 27.4805C35.1025 27.3665 35.1025 27.2526 35.1025 27.1387C35.1253 27.002 35.1481 26.8766 35.1709 26.7627C34.943 26.512 34.7949 26.2044 34.7266 25.8398C34.6582 25.4525 34.6012 25.0651 34.5557 24.6777C34.5101 24.2676 34.4417 23.8688 34.3506 23.4814C34.2822 23.0941 34.1455 22.7637 33.9404 22.4902C34.0316 22.3991 34.0771 22.2738 34.0771 22.1143C34.0771 22.0003 34.0544 21.8864 34.0088 21.7725C33.986 21.6585 33.9746 21.5446 33.9746 21.4307C33.9746 21.3395 34.0088 21.237 34.0771 21.123C33.8949 20.8952 33.7695 20.6901 33.7012 20.5078C33.6556 20.3027 33.6214 20.109 33.5986 19.9268C33.5758 19.7217 33.5531 19.5166 33.5303 19.3115C33.5303 19.1064 33.5075 18.89 33.4619 18.6621C33.4163 18.5026 33.3366 18.3887 33.2227 18.3203C33.1315 18.2292 33.0859 18.1608 33.0859 18.1152C33.0859 18.0013 33.1315 17.9102 33.2227 17.8418C32.9036 17.3861 32.6416 16.9076 32.4365 16.4062C32.2314 15.9049 32.0036 15.4036 31.7529 14.9023C31.7757 14.6517 31.8669 14.458 32.0264 14.3213C32.1859 14.1846 32.2998 14.0023 32.3682 13.7744H33.4619C34.4645 15.734 35.2279 17.7734 35.752 19.8926C36.2988 21.9889 36.7773 24.1081 37.1875 26.25C37.3014 26.8652 37.404 27.4805 37.4951 28.0957C37.6091 28.7109 37.7344 29.3376 37.8711 29.9756C37.9167 30.1123 37.985 30.2604 38.0762 30.4199C38.1673 30.5794 38.2129 30.7389 38.2129 30.8984C38.2129 31.0352 38.1787 31.1719 38.1104 31.3086C38.2471 31.3997 38.3496 31.5251 38.418 31.6846C38.5091 31.8441 38.5775 32.015 38.623 32.1973C38.6914 32.3568 38.7484 32.5277 38.7939 32.71C38.8395 32.8695 38.9079 33.0176 38.999 33.1543C39.2725 33.1315 39.5117 33.0062 39.7168 32.7783C39.9219 32.5505 40.1042 32.2884 40.2637 31.9922C40.446 31.6732 40.6055 31.3656 40.7422 31.0693C40.9017 30.7503 41.084 30.4997 41.2891 30.3174C41.3118 30.0667 41.3574 29.8275 41.4258 29.5996C41.5169 29.349 41.5625 29.0983 41.5625 28.8477C41.7904 28.4603 41.9954 28.0957 42.1777 27.7539C42.36 27.4121 42.474 27.002 42.5195 26.5234C42.6335 26.4323 42.7018 26.3639 42.7246 26.3184C42.7474 26.25 42.8499 26.2386 43.0322 26.2842C43.0322 25.6689 43.1234 25.0765 43.3057 24.5068C43.5107 23.9144 43.7842 23.3561 44.126 22.832C44.1716 22.3079 44.2741 21.7839 44.4336 21.2598C44.6159 20.7129 44.821 20.1774 45.0488 19.6533C45.1172 19.4938 45.2083 19.3115 45.3223 19.1064C45.4362 18.8786 45.4932 18.6735 45.4932 18.4912C45.4932 18.4001 45.4704 18.3203 45.4248 18.252C45.402 18.1608 45.3906 18.0697 45.3906 17.9785C45.3906 17.7962 45.459 17.6367 45.5957 17.5C45.7324 17.3633 45.8577 17.2266 45.9717 17.0898C45.9717 16.5658 46.0286 16.0417 46.1426 15.5176C46.2565 14.9935 46.4844 14.5378 46.8262 14.1504C46.9401 13.3757 47.0882 12.6237 47.2705 11.8945C47.4528 11.1426 47.7148 10.4248 48.0566 9.74121H49.2871C49.2871 9.30827 49.4808 9.0918 49.8682 9.0918C50.096 9.0918 50.3467 9.14876 50.6201 9.2627C50.8024 9.764 50.9277 10.3337 50.9961 10.9717C51.0872 11.5869 51.1328 12.1566 51.1328 12.6807Z" fill="#FF0000"/>
<path d="M75.4346 34.5215C75.3662 34.8405 75.2181 35.1025 74.9902 35.3076C74.7852 35.4899 74.5345 35.638 74.2383 35.752C73.9421 35.8659 73.6344 35.9456 73.3154 35.9912C73.0192 36.014 72.7458 36.0254 72.4951 36.0254C72.3812 36.0254 72.2673 36.0254 72.1533 36.0254C72.0622 36.0026 71.9596 35.9912 71.8457 35.9912C71.7318 35.9912 71.6748 36.0482 71.6748 36.1621C71.6748 36.276 71.6178 36.3558 71.5039 36.4014C71.39 36.3558 71.276 36.3216 71.1621 36.2988C71.0482 36.276 70.9342 36.2646 70.8203 36.2646C70.6608 36.2646 70.5013 36.276 70.3418 36.2988C70.2051 36.3216 70.0684 36.333 69.9316 36.333C69.7494 36.333 69.6126 36.3102 69.5215 36.2646C69.4531 36.2191 69.3848 36.1735 69.3164 36.1279C69.2708 36.0596 69.2139 35.9912 69.1455 35.9229C69.0999 35.8545 69.0202 35.7975 68.9062 35.752C68.7467 35.6836 68.61 35.6722 68.4961 35.7178C68.4049 35.7633 68.2568 35.695 68.0518 35.5127C67.7783 35.2848 67.5391 35.0114 67.334 34.6924C67.1517 34.3506 66.9694 33.9974 66.7871 33.6328C66.6048 33.2682 66.4111 32.9036 66.2061 32.5391C66.001 32.1745 65.7617 31.8555 65.4883 31.582H65.2148C64.8047 31.582 64.5199 31.7529 64.3604 32.0947C64.2464 32.0264 64.1325 31.9466 64.0186 31.8555C63.9046 31.7415 63.7793 31.6504 63.6426 31.582C63.1185 31.7415 62.5716 31.8783 62.002 31.9922C61.4323 32.1061 60.8626 32.1631 60.293 32.1631H59.8145C59.6777 32.1631 59.5296 32.1403 59.3701 32.0947C59.1423 32.1859 58.9372 32.2998 58.7549 32.4365C58.5726 32.5505 58.3675 32.6074 58.1396 32.6074C58.0029 32.6074 57.8434 32.5618 57.6611 32.4707C57.5244 32.4707 57.4561 32.5277 57.4561 32.6416C57.4788 32.7555 57.4105 32.8125 57.251 32.8125H56.9434C56.6243 32.8125 56.3053 32.8239 55.9863 32.8467C55.6901 32.8695 55.3825 32.8809 55.0635 32.8809C54.6305 32.8809 54.1862 32.8239 53.7305 32.71C53.6165 32.7783 53.4912 32.8125 53.3545 32.8125C53.2633 32.8581 53.195 32.9378 53.1494 33.0518C53.1038 33.1429 53.0583 33.2341 53.0127 33.3252C52.9671 33.3936 52.8988 33.4619 52.8076 33.5303C52.7393 33.5758 52.6367 33.5872 52.5 33.5645C52.4544 33.8379 52.3405 34.0544 52.1582 34.2139C51.9759 34.3734 51.8848 34.6126 51.8848 34.9316C51.6341 35.0684 51.429 35.2393 51.2695 35.4443C51.11 35.6494 50.9505 35.8659 50.791 36.0938C50.6315 36.3216 50.4606 36.5381 50.2783 36.7432C50.1188 36.9482 49.9137 37.1077 49.6631 37.2217C49.5492 37.3584 49.515 37.5749 49.5605 37.8711C49.3099 38.0762 49.0023 38.2585 48.6377 38.418C48.2731 38.5775 47.9313 38.6572 47.6123 38.6572C46.9515 38.6572 46.4958 38.304 46.2451 37.5977C46.2451 37.3698 46.2679 37.1305 46.3135 36.8799C46.3363 36.6064 46.3818 36.3558 46.4502 36.1279C46.5186 35.8773 46.6211 35.6608 46.7578 35.4785C46.8945 35.2734 47.0882 35.1253 47.3389 35.0342C47.3389 34.8291 47.2705 34.6924 47.1338 34.624C46.9971 34.5329 46.9401 34.3848 46.9629 34.1797C47.5781 33.8835 48.1136 33.4961 48.5693 33.0176C49.0251 32.5391 49.4352 32.0378 49.7998 31.5137C50.1872 30.9668 50.5745 30.4199 50.9619 29.873C51.3493 29.3262 51.7822 28.8363 52.2607 28.4033V27.6855C52.9443 26.9564 53.3887 26.1361 53.5938 25.2246C53.8444 25.179 54.0039 25.0651 54.0723 24.8828C54.1634 24.7005 54.209 24.484 54.209 24.2334C54.3229 24.2334 54.3913 24.1878 54.4141 24.0967C54.4596 23.9827 54.5622 23.9486 54.7217 23.9941C54.9268 23.4473 55.1546 22.946 55.4053 22.4902C55.6559 22.0345 55.9066 21.5788 56.1572 21.123C56.4079 20.6445 56.6243 20.1546 56.8066 19.6533C57.0117 19.152 57.1598 18.5938 57.251 17.9785C57.57 17.9557 57.7409 17.8076 57.7637 17.5342C57.8092 17.238 57.8548 16.9759 57.9004 16.748C58.2422 16.429 58.4928 16.0531 58.6523 15.6201C58.8346 15.1872 58.9941 14.7428 59.1309 14.2871C59.2676 13.8086 59.4157 13.3415 59.5752 12.8857C59.7575 12.4072 60.0081 11.9857 60.3271 11.6211V11.5186C60.3271 11.4046 60.2816 11.3363 60.1904 11.3135C60.0993 11.2679 60.0537 11.1882 60.0537 11.0742C60.0765 11.0514 60.0879 11.0286 60.0879 11.0059C60.3613 10.8919 60.5664 10.7096 60.7031 10.459C60.8398 10.1855 61.0449 9.99186 61.3184 9.87793C61.7969 10.2653 62.2184 10.5046 62.583 10.5957C62.9476 10.6641 63.4261 10.721 64.0186 10.7666C64.3148 11.0856 64.4743 11.473 64.4971 11.9287C64.5426 12.3617 64.6224 12.7946 64.7363 13.2275C64.9186 13.9567 65.1123 14.6745 65.3174 15.3809C65.5452 16.0645 65.7161 16.7708 65.8301 17.5C65.8984 17.9329 66.0238 18.3431 66.2061 18.7305C66.3883 19.1178 66.5137 19.5166 66.582 19.9268C66.6276 20.2458 66.6276 20.6104 66.582 21.0205C66.5365 21.4079 66.582 21.7497 66.7188 22.0459L66.958 22.5928C67.0719 22.8434 67.1631 23.1055 67.2314 23.3789C67.3226 23.6523 67.4023 23.9258 67.4707 24.1992C67.653 24.8828 67.8125 25.6234 67.9492 26.4209C68.1087 27.1956 68.348 27.902 68.667 28.54C68.7809 28.7679 68.9518 28.9274 69.1797 29.0186C69.4303 29.1097 69.7038 29.1781 70 29.2236C70.2962 29.2464 70.5811 29.2578 70.8545 29.2578C71.1507 29.235 71.4014 29.2236 71.6064 29.2236H71.9482C72.085 29.2236 72.2217 29.2464 72.3584 29.292C72.4495 29.4743 72.4951 29.6338 72.4951 29.7705C72.4951 30.0439 72.404 30.2604 72.2217 30.4199C72.0394 30.5794 71.9482 30.7617 71.9482 30.9668C71.9482 31.0807 71.9938 31.2061 72.085 31.3428C71.9938 31.32 71.8571 31.3086 71.6748 31.3086C71.1507 31.3086 70.638 31.3997 70.1367 31.582C70.319 31.9694 70.5583 32.2998 70.8545 32.5732C71.1735 32.8239 71.5039 33.0632 71.8457 33.291C72.0736 33.1087 72.3128 33.0176 72.5635 33.0176C72.8369 33.0176 73.0876 33.0859 73.3154 33.2227C73.5661 33.3366 73.8281 33.3936 74.1016 33.3936C74.3066 33.3936 74.4548 33.3594 74.5459 33.291C74.7282 33.4961 74.8763 33.7126 74.9902 33.9404C75.1042 34.1455 75.2523 34.3392 75.4346 34.5215ZM64.7363 29.0527C64.6908 28.6654 64.611 28.3919 64.4971 28.2324C64.4059 28.0501 64.3262 27.8337 64.2578 27.583C64.1667 27.264 64.0983 26.9222 64.0527 26.5576C64.0299 26.193 63.9844 25.8398 63.916 25.498C63.7565 24.7233 63.5742 23.9486 63.3691 23.1738C63.1868 22.3991 62.9476 21.6471 62.6514 20.918C62.7425 20.7812 62.7881 20.6559 62.7881 20.542V20.4395C62.583 20.2116 62.4349 19.9382 62.3438 19.6191C62.2526 19.2773 62.1615 18.9469 62.0703 18.6279C62.002 18.2861 61.8994 17.9785 61.7627 17.7051C61.6488 17.4089 61.4551 17.1696 61.1816 16.9873C61.1133 17.124 61.0791 17.2835 61.0791 17.4658C61.0791 17.6253 61.0905 17.7734 61.1133 17.9102C61.1589 18.0469 61.1816 18.195 61.1816 18.3545C60.9538 18.4684 60.7829 18.6507 60.6689 18.9014C60.5778 19.1292 60.4183 19.3115 60.1904 19.4482C60.0081 20.1774 59.7461 20.8724 59.4043 21.5332C59.0625 22.1712 58.6979 22.8092 58.3105 23.4473C57.946 24.0853 57.5928 24.7347 57.251 25.3955C56.9092 26.0335 56.6357 26.7057 56.4307 27.4121C56.1344 27.6172 55.9294 27.8792 55.8154 28.1982C55.7243 28.5173 55.6787 28.8363 55.6787 29.1553C55.8838 29.2692 56.1117 29.3376 56.3623 29.3604C56.6357 29.3604 56.8978 29.3604 57.1484 29.3604C57.3991 29.3604 57.6383 29.3831 57.8662 29.4287C58.0941 29.4743 58.2992 29.5882 58.4814 29.7705C58.7777 29.6794 59.0967 29.6224 59.4385 29.5996C59.8031 29.554 60.0993 29.4515 60.3271 29.292C60.7829 29.4515 61.2728 29.5312 61.7969 29.5312C62.0703 29.5312 62.3324 29.5085 62.583 29.4629C62.8564 29.4173 63.1185 29.3604 63.3691 29.292C63.5742 29.3376 63.7337 29.4173 63.8477 29.5312C63.9616 29.6224 64.1325 29.6566 64.3604 29.6338C64.4743 29.5426 64.5426 29.4515 64.5654 29.3604C64.5882 29.2464 64.6452 29.1439 64.7363 29.0527Z" fill="#FF0000"/>
<path d="M115.972 38.418C115.926 38.8737 115.767 39.2269 115.493 39.4775C115.22 39.751 114.867 39.8877 114.434 39.8877C114.206 39.8877 113.989 39.8535 113.784 39.7852C113.351 40.127 112.839 40.389 112.246 40.5713C111.654 40.7536 111.095 40.9359 110.571 41.1182C109.933 41.0954 109.307 41.0384 108.691 40.9473C108.076 40.8561 107.438 40.8333 106.777 40.8789C106.549 40.7194 106.31 40.6169 106.06 40.5713C105.809 40.5257 105.547 40.4915 105.273 40.4688C105.023 40.4688 104.772 40.4346 104.521 40.3662C104.294 40.2979 104.066 40.1383 103.838 39.8877H102.129C101.969 39.8877 101.73 39.8079 101.411 39.6484C101.115 39.5117 100.773 39.3636 100.386 39.2041C100.021 39.0446 99.6224 38.8965 99.1895 38.7598C98.7793 38.623 98.3919 38.5547 98.0273 38.5547H97.8223C97.5716 38.3496 97.2754 38.1901 96.9336 38.0762C96.6146 37.985 96.2842 37.8939 95.9424 37.8027C95.6006 37.7344 95.2702 37.6546 94.9512 37.5635C94.6322 37.4723 94.3587 37.347 94.1309 37.1875C93.903 37.028 93.641 36.8685 93.3447 36.709C93.0485 36.5267 92.7409 36.4469 92.4219 36.4697C91.9889 36.2191 91.5332 36.0026 91.0547 35.8203C90.599 35.638 90.1318 35.4671 89.6533 35.3076L88.252 34.7949C87.7962 34.6126 87.3405 34.3962 86.8848 34.1455C86.8164 34.1683 86.7367 34.1683 86.6455 34.1455C86.5544 34.1227 86.4746 34.1113 86.4062 34.1113C86.2695 34.1113 86.1898 34.1569 86.167 34.248C86.0075 34.0885 85.8252 33.9518 85.6201 33.8379C85.4378 33.724 85.2555 33.5872 85.0732 33.4277C84.9821 33.4505 84.891 33.4733 84.7998 33.4961C84.7314 33.4961 84.6403 33.4961 84.5264 33.4961C84.3213 33.4961 84.1162 33.4733 83.9111 33.4277C83.7288 33.3822 83.5465 33.3252 83.3643 33.2568C83.1592 33.7126 83.0225 34.2253 82.9541 34.7949C82.8857 35.3646 82.8288 35.957 82.7832 36.5723C82.7604 37.1647 82.7262 37.7572 82.6807 38.3496C82.6351 38.9648 82.5326 39.5231 82.373 40.0244C82.4186 40.2067 82.4414 40.389 82.4414 40.5713V41.1523C82.4414 41.5397 82.4984 41.8473 82.6123 42.0752C82.5667 42.2803 82.5212 42.474 82.4756 42.6562C82.4528 42.8385 82.4186 43.0208 82.373 43.2031C82.3958 43.4538 82.4072 43.6816 82.4072 43.8867C82.43 44.1146 82.4414 44.3538 82.4414 44.6045V45.1855C82.4414 45.3906 82.4186 45.5957 82.373 45.8008C82.1452 45.9375 81.9173 46.0628 81.6895 46.1768C81.4616 46.3135 81.2337 46.473 81.0059 46.6553C80.8464 46.3591 80.5729 46.1882 80.1855 46.1426C80.0944 46.2565 80.026 46.4046 79.9805 46.5869C79.9577 46.792 79.8551 46.8945 79.6729 46.8945C79.3538 46.6439 79.0918 46.4388 78.8867 46.2793C78.6816 46.1198 78.4538 45.8805 78.2031 45.5615C78.1803 45.5159 78.1689 45.459 78.1689 45.3906C78.1689 45.2767 78.1917 45.1742 78.2373 45.083C78.2829 44.9919 78.3057 44.9007 78.3057 44.8096C78.3057 44.5361 78.2715 44.2969 78.2031 44.0918C78.1576 43.7956 78.1234 43.4993 78.1006 43.2031C78.0778 42.9297 78.0664 42.6562 78.0664 42.3828C78.0664 41.9954 78.0892 41.6195 78.1348 41.2549C78.2031 40.8903 78.3171 40.5143 78.4766 40.127C78.7272 39.4661 78.8981 38.7712 78.9893 38.042C79.1032 37.3128 79.1829 36.5837 79.2285 35.8545C79.2741 35.1025 79.2969 34.3506 79.2969 33.5986C79.3197 32.8467 79.3652 32.1289 79.4336 31.4453C79.2741 31.0807 79.0804 30.7959 78.8525 30.5908C78.6475 30.363 78.5449 30.0098 78.5449 29.5312C78.5449 29.0983 78.6816 28.7679 78.9551 28.54C79.2285 28.2894 79.4678 27.9932 79.6729 27.6514C79.6273 27.5146 79.6615 27.4235 79.7754 27.3779L80.1855 23.7891C80.2083 23.5384 80.2425 23.265 80.2881 22.9688C80.3564 22.6725 80.402 22.3991 80.4248 22.1484C80.4704 21.6243 80.4932 21.1117 80.4932 20.6104C80.4932 20.109 80.516 19.6077 80.5615 19.1064C80.6755 17.9899 80.778 16.8848 80.8691 15.791C80.9831 14.6973 81.04 13.6035 81.04 12.5098C81.04 11.9857 81.0173 11.4616 80.9717 10.9375C80.9489 10.4134 80.8805 9.88932 80.7666 9.36523C80.3792 9.47917 79.9463 9.60449 79.4678 9.74121C79.012 9.85514 78.6247 10.0602 78.3057 10.3564H78.0322C77.4398 10.3564 76.8815 10.4704 76.3574 10.6982C75.8561 10.9261 75.3434 11.1426 74.8193 11.3477C74.5915 11.4616 74.3636 11.5413 74.1357 11.5869C73.9079 11.6097 73.6686 11.6553 73.418 11.7236C73.304 11.7464 73.1787 11.8148 73.042 11.9287C72.9053 12.0426 72.7799 12.1224 72.666 12.168L72.085 12.3047C71.9255 12.3503 71.8571 12.4528 71.8799 12.6123C71.9027 12.7718 71.8457 12.8743 71.709 12.9199C71.5951 13.0339 71.4355 13.0908 71.2305 13.0908C71.0254 13.068 70.8659 13.0566 70.752 13.0566H70.6152C70.0456 13.4668 69.4987 13.82 68.9746 14.1162C68.4277 14.3896 67.7897 14.5719 67.0605 14.6631L66.3086 15.1416C66.0579 15.3011 65.7731 15.3809 65.4541 15.3809C65.2035 15.3809 64.9984 15.3353 64.8389 15.2441C64.6566 14.9707 64.5199 14.6631 64.4287 14.3213C64.3148 13.9795 64.1325 13.6833 63.8818 13.4326C63.9958 13.3187 64.0755 13.1706 64.1211 12.9883C64.1439 12.7832 64.1781 12.6009 64.2236 12.4414C64.9072 12.1452 65.6022 11.8604 66.3086 11.5869C66.9922 11.3135 67.653 10.9831 68.291 10.5957C68.3594 10.6185 68.4619 10.6299 68.5986 10.6299C68.8265 10.6299 69.0316 10.5957 69.2139 10.5273C69.3962 10.459 69.5785 10.3792 69.7607 10.2881C69.943 10.1969 70.1253 10.1172 70.3076 10.0488C70.4899 9.98047 70.7064 9.95768 70.957 9.98047C71.7318 9.54753 72.5521 9.19434 73.418 8.9209C74.2839 8.64746 75.1042 8.27148 75.8789 7.79297C75.9928 7.79297 76.084 7.81576 76.1523 7.86133C76.2435 7.9069 76.3346 7.92969 76.4258 7.92969C76.5169 7.92969 76.5739 7.91829 76.5967 7.89551C76.7334 7.71322 76.9157 7.58789 77.1436 7.51953C77.3714 7.42839 77.5993 7.36003 77.8271 7.31445C78.0778 7.24609 78.3057 7.16634 78.5107 7.0752C78.7386 6.96126 78.8867 6.79036 78.9551 6.5625C79.069 6.65365 79.2399 6.69922 79.4678 6.69922C79.8551 6.69922 80.2083 6.61947 80.5273 6.45996C80.8691 6.30046 81.2337 6.2207 81.6211 6.2207C81.7122 6.2207 81.792 6.24349 81.8604 6.28906C81.9515 6.31185 82.0426 6.32324 82.1338 6.32324C82.3161 6.32324 82.4072 6.26628 82.4072 6.15234C82.43 6.03841 82.4984 5.93587 82.6123 5.84473C84.0023 5.59408 85.3809 5.36621 86.748 5.16113C88.138 4.95605 89.5394 4.85352 90.9521 4.85352C91.1572 4.7168 91.3851 4.64844 91.6357 4.64844C91.8864 4.64844 92.1143 4.7168 92.3193 4.85352C92.7067 4.80794 93.0941 4.77376 93.4814 4.75098C93.8688 4.72819 94.2562 4.7168 94.6436 4.7168C95.5322 4.7168 96.4437 4.77376 97.3779 4.8877C98.3122 5.00163 99.235 5.18392 100.146 5.43457C101.081 5.66244 101.969 5.98145 102.812 6.3916C103.656 6.77897 104.442 7.24609 105.171 7.79297C105.239 7.99805 105.33 8.20312 105.444 8.4082C105.558 8.61328 105.706 8.77279 105.889 8.88672C105.889 8.93229 105.877 8.96647 105.854 8.98926C105.854 9.01204 105.854 9.04622 105.854 9.0918C105.854 9.34245 105.923 9.58171 106.06 9.80957C106.219 10.0374 106.299 10.3109 106.299 10.6299C106.299 10.9489 106.242 11.2679 106.128 11.5869C106.037 11.9059 106.003 12.2249 106.025 12.5439C105.775 12.9085 105.558 13.2389 105.376 13.5352C105.216 13.8314 105.114 14.2074 105.068 14.6631C104.658 15.0732 104.294 15.529 103.975 16.0303C103.656 16.5088 103.325 16.9873 102.983 17.4658C102.664 17.9215 102.3 18.3431 101.89 18.7305C101.479 19.1178 100.99 19.4255 100.42 19.6533C100.397 19.8812 100.306 20.1318 100.146 20.4053H99.4287C99.3604 20.5876 99.2464 20.7243 99.0869 20.8154L98.6084 21.0889C98.4489 21.18 98.3122 21.2939 98.1982 21.4307C98.1071 21.5674 98.0615 21.7611 98.0615 22.0117C98.016 21.9889 97.959 21.9775 97.8906 21.9775C97.6628 21.9775 97.3893 22.0915 97.0703 22.3193C96.7741 22.5472 96.5348 22.7295 96.3525 22.8662C95.9652 23.1396 95.5664 23.3903 95.1562 23.6182C94.7689 23.846 94.4271 24.165 94.1309 24.5752C93.2194 24.9626 92.3535 25.4183 91.5332 25.9424C90.7129 26.4437 89.8242 26.8424 88.8672 27.1387C88.5026 27.526 88.0697 27.8337 87.5684 28.0615C87.0898 28.2666 86.6227 28.4945 86.167 28.7451V28.8477C86.167 29.0299 86.2354 29.2122 86.3721 29.3945C86.5088 29.554 86.6683 29.7021 86.8506 29.8389C87.0329 29.9528 87.2266 30.0326 87.4316 30.0781C87.6595 30.1237 87.8532 30.1237 88.0127 30.0781C88.4684 30.4883 88.9925 30.8187 89.585 31.0693C90.1774 31.32 90.7926 31.5479 91.4307 31.7529C92.0687 31.958 92.6953 32.1745 93.3105 32.4023C93.9258 32.6302 94.4954 32.915 95.0195 33.2568H95.8398C96.3639 33.7126 96.9792 34.0544 97.6855 34.2822C98.4147 34.5101 99.1097 34.7152 99.7705 34.8975C100.044 35.1481 100.386 35.3418 100.796 35.4785C101.229 35.5924 101.639 35.6494 102.026 35.6494H102.231C102.323 35.6494 102.402 35.638 102.471 35.6152V35.6836C102.471 35.7975 102.505 35.8773 102.573 35.9229C102.642 35.9456 102.71 35.9684 102.778 35.9912C102.869 35.9912 102.949 36.014 103.018 36.0596C103.109 36.0824 103.177 36.1279 103.223 36.1963H103.564C104.043 36.1963 104.499 36.2988 104.932 36.5039C105.365 36.6862 105.82 36.7773 106.299 36.7773C106.504 36.7773 106.663 36.7546 106.777 36.709C106.914 36.7546 107.017 36.8457 107.085 36.9824C107.153 37.1191 107.244 37.2331 107.358 37.3242C107.518 37.3014 107.666 37.2786 107.803 37.2559C107.939 37.2559 108.076 37.2559 108.213 37.2559C108.714 37.2559 109.181 37.3128 109.614 37.4268C110.047 37.5407 110.492 37.7116 110.947 37.9395C111.676 37.6204 112.394 37.3584 113.101 37.1533C113.807 36.9482 114.559 36.8457 115.356 36.8457V36.9141C115.356 37.1875 115.425 37.4382 115.562 37.666C115.721 37.9167 115.858 38.1673 115.972 38.418ZM102.881 11.1426C102.881 10.8691 102.824 10.6527 102.71 10.4932C102.619 10.3337 102.493 10.1969 102.334 10.083C102.174 9.94629 102.004 9.82096 101.821 9.70703C101.662 9.5931 101.514 9.44499 101.377 9.2627C100.785 9.0804 100.203 8.87533 99.6338 8.64746C99.0641 8.4196 98.4831 8.22591 97.8906 8.06641C97.5944 7.99805 97.2982 7.94108 97.002 7.89551C96.7057 7.82715 96.4095 7.79297 96.1133 7.79297H95.3613C95.2246 7.77018 95.0765 7.7474 94.917 7.72461C94.7803 7.67904 94.6436 7.64486 94.5068 7.62207C94.1878 7.5765 93.8688 7.54232 93.5498 7.51953C93.2536 7.49674 92.946 7.48535 92.627 7.48535C92.0345 7.48535 91.4421 7.50814 90.8496 7.55371L89.0723 7.69043C88.8216 7.71322 88.5596 7.72461 88.2861 7.72461C88.0127 7.72461 87.762 7.7474 87.5342 7.79297C87.4202 7.81576 87.2607 7.87272 87.0557 7.96387C86.8506 8.03223 86.6341 8.11198 86.4062 8.20312C86.1784 8.27148 85.9505 8.35124 85.7227 8.44238C85.5176 8.53353 85.3353 8.60189 85.1758 8.64746C85.1986 8.80697 85.21 8.96647 85.21 9.12598V9.57031C85.21 9.91211 85.1986 10.2539 85.1758 10.5957C85.153 10.9375 85.1074 11.2793 85.0391 11.6211C85.0163 11.7578 84.9821 11.8945 84.9365 12.0312C84.891 12.168 84.8568 12.3047 84.834 12.4414C84.7884 12.6465 84.7656 12.8743 84.7656 13.125V13.7744C84.7201 14.2985 84.6859 14.8112 84.6631 15.3125C84.6403 15.8138 84.6061 16.3265 84.5605 16.8506C84.4238 18.3545 84.2757 19.847 84.1162 21.3281C83.9795 22.8092 83.8883 24.3018 83.8428 25.8057C84.5947 25.6462 85.3125 25.4069 85.9961 25.0879C86.6797 24.7689 87.3519 24.4271 88.0127 24.0625C88.6735 23.6751 89.3343 23.2992 89.9951 22.9346C90.6559 22.57 91.3509 22.2624 92.0801 22.0117C92.2624 21.7611 92.4788 21.556 92.7295 21.3965C93.0029 21.237 93.2308 21.0319 93.4131 20.7812C93.641 20.7812 93.8119 20.7357 93.9258 20.6445C94.0397 20.5306 94.1878 20.4508 94.3701 20.4053C95.4639 19.4482 96.5804 18.5482 97.7197 17.7051C98.859 16.862 99.9528 15.9619 101.001 15.0049C101.092 14.6859 101.24 14.3783 101.445 14.082C101.673 13.763 101.89 13.444 102.095 13.125C102.3 12.806 102.482 12.487 102.642 12.168C102.801 11.849 102.881 11.5072 102.881 11.1426Z" fill="#FF0000"/>
<path d="M140.547 17.9102C140.547 19.209 140.456 20.4736 140.273 21.7041C140.114 22.9118 139.875 24.1423 139.556 25.3955C139.259 25.6234 139.077 25.9082 139.009 26.25C138.94 26.5918 138.826 26.9108 138.667 27.207C138.53 27.4577 138.348 27.7311 138.12 28.0273C137.892 28.3008 137.642 28.597 137.368 28.916C137.095 29.2122 136.821 29.5199 136.548 29.8389C136.274 30.1579 136.047 30.4769 135.864 30.7959C135.181 31.0238 134.691 31.5137 134.395 32.2656C134.03 32.4023 133.654 32.5618 133.267 32.7441C132.879 32.9036 132.606 33.1885 132.446 33.5986C131.603 34.0316 130.806 34.5329 130.054 35.1025C129.325 35.6494 128.527 36.1279 127.661 36.5381C127.547 36.652 127.41 36.7432 127.251 36.8115C127.114 36.8571 126.966 36.9141 126.807 36.9824C126.67 37.0508 126.533 37.1305 126.396 37.2217C126.283 37.3356 126.214 37.4723 126.191 37.6318C126.1 37.6318 126.032 37.6091 125.986 37.5635C125.964 37.5407 125.895 37.5179 125.781 37.4951C125.531 37.6318 125.417 37.8483 125.439 38.1445C125.348 38.099 125.223 38.0762 125.063 38.0762C124.79 38.0762 124.517 38.1559 124.243 38.3154C123.993 38.4977 123.776 38.68 123.594 38.8623C123.32 38.999 123.001 39.1357 122.637 39.2725C122.295 39.4092 122.044 39.637 121.885 39.9561C121.794 39.8649 121.657 39.8193 121.475 39.8193C121.27 39.8193 121.053 39.8763 120.825 39.9902C120.597 40.127 120.426 40.2751 120.312 40.4346C119.993 40.4346 119.686 40.4801 119.39 40.5713C119.116 40.6852 118.831 40.7878 118.535 40.8789C118.239 40.9928 117.943 41.0954 117.646 41.1865C117.373 41.2777 117.077 41.3232 116.758 41.3232C116.576 41.3232 116.439 41.2777 116.348 41.1865C116.257 41.0954 116.143 41.0156 116.006 40.9473C115.892 41.0384 115.687 41.1409 115.391 41.2549C115.117 41.3688 114.912 41.4258 114.775 41.4258C114.525 41.4258 114.274 41.3916 114.023 41.3232C113.796 41.2549 113.556 41.1751 113.306 41.084L112.588 40.8447C112.36 40.7764 112.109 40.7308 111.836 40.708C111.631 40.5257 111.38 40.332 111.084 40.127C110.811 39.9447 110.537 39.8877 110.264 39.9561C110.15 39.6143 109.979 39.318 109.751 39.0674C109.523 38.8167 109.261 38.5889 108.965 38.3838C108.896 38.3382 108.817 38.2926 108.726 38.2471C108.657 38.2243 108.6 38.1901 108.555 38.1445C108.441 38.0762 108.338 37.9395 108.247 37.7344C108.156 37.5293 108.053 37.4268 107.939 37.4268C107.917 37.4268 107.882 37.4382 107.837 37.4609C107.814 37.4837 107.791 37.4951 107.769 37.4951C107.723 37.29 107.655 37.0964 107.563 36.9141C107.472 36.709 107.313 36.5837 107.085 36.5381C106.903 35.9456 106.777 35.3532 106.709 34.7607C106.641 34.1683 106.549 33.5758 106.436 32.9834C106.39 32.8011 106.333 32.5846 106.265 32.334C106.219 32.0605 106.196 31.8213 106.196 31.6162C106.196 31.2744 106.242 30.8643 106.333 30.3857C106.447 29.9072 106.538 29.4857 106.606 29.1211C106.88 27.7995 107.244 26.5234 107.7 25.293C108.156 24.0397 108.646 22.7979 109.17 21.5674C109.717 20.3369 110.275 19.1178 110.845 17.9102C111.414 16.7025 111.95 15.472 112.451 14.2188C112.542 14.2188 112.599 14.196 112.622 14.1504L112.725 13.9795C112.77 13.9111 112.804 13.8542 112.827 13.8086C112.873 13.763 112.952 13.7402 113.066 13.7402V13.6377C113.044 13.501 113.066 13.387 113.135 13.2959C113.226 13.2048 113.249 13.0566 113.203 12.8516C113.568 12.4414 113.875 11.9857 114.126 11.4844C114.377 10.9603 114.627 10.4476 114.878 9.94629C115.151 9.44499 115.436 8.95508 115.732 8.47656C116.029 7.99805 116.405 7.58789 116.86 7.24609V7.00684C116.838 6.8929 116.838 6.77897 116.86 6.66504C116.906 6.52832 116.986 6.43717 117.1 6.3916C117.51 5.98145 117.852 5.57129 118.125 5.16113C118.398 4.75098 118.672 4.35221 118.945 3.96484C119.242 3.55469 119.561 3.17871 119.902 2.83691C120.267 2.47233 120.723 2.14193 121.27 1.8457C121.52 1.73177 121.702 1.56087 121.816 1.33301C121.93 1.10514 122.078 0.945638 122.261 0.854492C122.352 0.808919 122.443 0.786133 122.534 0.786133C122.648 0.763346 122.751 0.729167 122.842 0.683594C123.229 0.569661 123.617 0.432943 124.004 0.273438C124.391 0.0911458 124.801 0 125.234 0C125.781 0 126.191 0.159505 126.465 0.478516C126.761 0.77474 126.989 1.13932 127.148 1.57227C127.331 2.00521 127.479 2.46094 127.593 2.93945C127.707 3.41797 127.889 3.82812 128.14 4.16992C128.823 4.21549 129.518 4.29525 130.225 4.40918C130.931 4.50033 131.546 4.78516 132.07 5.26367C132.116 5.28646 132.173 5.29785 132.241 5.29785C132.355 5.29785 132.412 5.25228 132.412 5.16113C132.412 5.06999 132.469 5.02441 132.583 5.02441H132.686C133.369 5.43457 134.019 5.8903 134.634 6.3916C135.272 6.87012 135.898 7.37142 136.514 7.89551C136.628 7.98665 136.742 8.0778 136.855 8.16895C136.992 8.2373 137.106 8.32845 137.197 8.44238C137.311 8.5791 137.414 8.73861 137.505 8.9209C137.619 9.10319 137.721 9.2627 137.812 9.39941C138.952 11.3818 139.715 13.5124 140.103 15.791C140.148 16.0417 140.182 16.2809 140.205 16.5088C140.251 16.7367 140.273 16.9531 140.273 17.1582C140.273 17.3633 140.319 17.5 140.41 17.5684C140.501 17.6139 140.547 17.7279 140.547 17.9102ZM137.915 19.6533C137.915 18.7419 137.801 17.8646 137.573 17.0215C137.687 16.9759 137.756 16.9076 137.778 16.8164C137.824 16.7025 137.847 16.5885 137.847 16.4746V16.3037L137.437 15.5518C137.414 15.2327 137.345 14.9365 137.231 14.6631C137.14 14.3896 137.026 14.1162 136.89 13.8428C136.753 13.5693 136.616 13.2959 136.479 13.0225C136.366 12.749 136.286 12.4528 136.24 12.1338C135.876 11.8604 135.545 11.5527 135.249 11.2109C134.976 10.8464 134.725 10.4704 134.497 10.083C134.338 10.0146 134.189 9.96908 134.053 9.94629C133.916 9.9235 133.87 9.79818 133.916 9.57031C133.506 9.45638 133.13 9.29688 132.788 9.0918C132.469 8.86393 132.15 8.61328 131.831 8.33984C131.307 8.22591 130.783 8.08919 130.259 7.92969C129.757 7.7474 129.245 7.65625 128.721 7.65625C128.356 7.65625 128.003 7.72461 127.661 7.86133C127.775 8.04362 127.832 8.2487 127.832 8.47656C127.832 8.68164 127.855 8.88672 127.9 9.0918C128.63 9.27409 129.074 9.71842 129.233 10.4248C129.119 10.4932 129.017 10.5843 128.926 10.6982C128.835 10.7894 128.743 10.8805 128.652 10.9717C128.584 11.04 128.493 11.1084 128.379 11.1768C128.265 11.2451 128.128 11.2793 127.969 11.2793C127.65 11.2793 127.399 11.2223 127.217 11.1084C127.057 10.9945 126.795 10.9717 126.431 11.04C126.043 10.6982 125.667 10.3451 125.303 9.98047C124.938 9.5931 124.528 9.2513 124.072 8.95508C124.004 8.72721 123.89 8.52214 123.73 8.33984C123.594 8.15755 123.446 7.98665 123.286 7.82715C123.149 7.64486 123.013 7.46256 122.876 7.28027C122.762 7.0752 122.705 6.84733 122.705 6.59668C122.705 6.43717 122.716 6.32324 122.739 6.25488C122.603 6.20931 122.5 6.18652 122.432 6.18652C122.249 6.18652 122.078 6.25488 121.919 6.3916C121.759 6.50553 121.577 6.58529 121.372 6.63086C121.19 7.17773 120.928 7.65625 120.586 8.06641C120.244 8.47656 119.891 8.87533 119.526 9.2627C119.162 9.65007 118.82 10.0602 118.501 10.4932C118.205 10.9033 117.988 11.416 117.852 12.0312C117.122 12.9427 116.45 13.9795 115.835 15.1416C115.22 16.2809 114.753 17.3975 114.434 18.4912C113.91 19.0837 113.499 19.7103 113.203 20.3711C112.907 21.0319 112.736 21.7611 112.69 22.5586C112.576 22.627 112.485 22.7181 112.417 22.832L112.075 23.5156C112.03 23.6296 111.95 23.7207 111.836 23.7891V23.96C111.836 24.1423 111.802 24.3132 111.733 24.4727C111.665 24.6094 111.585 24.7461 111.494 24.8828C111.426 25.0195 111.357 25.1562 111.289 25.293C111.221 25.4069 111.187 25.5436 111.187 25.7031C111.187 25.8854 111.232 26.0677 111.323 26.25C111.073 26.2956 110.902 26.4323 110.811 26.6602C110.742 26.8652 110.64 27.0475 110.503 27.207C110.412 27.9362 110.321 28.6768 110.229 29.4287C110.138 30.1807 110.093 30.9212 110.093 31.6504C110.093 32.4935 110.184 33.348 110.366 34.2139C110.571 34.4189 110.754 34.6468 110.913 34.8975C111.073 35.1481 111.232 35.3874 111.392 35.6152C111.574 35.8431 111.768 36.0482 111.973 36.2305C112.178 36.39 112.451 36.4925 112.793 36.5381C112.793 36.6976 112.827 36.8115 112.896 36.8799C112.964 36.9482 113.021 37.0394 113.066 37.1533C113.545 37.3128 114.046 37.4382 114.57 37.5293C115.094 37.6432 115.618 37.7002 116.143 37.7002C116.507 37.7002 116.872 37.6546 117.236 37.5635C117.624 37.4723 117.943 37.29 118.193 37.0166C119.355 36.971 120.506 36.6976 121.646 36.1963C122.808 35.695 123.867 35.1481 124.824 34.5557H125.542C125.793 34.2139 126.1 33.9404 126.465 33.7354C126.829 33.5075 127.205 33.3024 127.593 33.1201C127.661 33.0745 127.752 33.029 127.866 32.9834C127.98 32.9378 128.071 32.8923 128.14 32.8467C128.39 32.6644 128.641 32.4593 128.892 32.2314C129.165 32.0036 129.438 31.7871 129.712 31.582C130.168 31.2402 130.635 30.9098 131.113 30.5908C131.592 30.2718 132.048 29.93 132.48 29.5654C132.936 29.2008 133.358 28.8135 133.745 28.4033C134.155 27.9704 134.497 27.4919 134.771 26.9678C134.907 26.9678 135.01 26.9336 135.078 26.8652C135.169 26.7741 135.238 26.6829 135.283 26.5918C135.352 26.5007 135.42 26.4209 135.488 26.3525C135.579 26.2842 135.705 26.25 135.864 26.25C135.864 26.0449 135.898 25.874 135.967 25.7373C136.058 25.5778 136.149 25.4411 136.24 25.3271C136.354 25.1904 136.457 25.0651 136.548 24.9512C136.662 24.8372 136.764 24.6891 136.855 24.5068V23.5498C137.22 22.9574 137.482 22.3307 137.642 21.6699C137.824 21.0091 137.915 20.3369 137.915 19.6533Z" fill="#FF0000"/>
<path d="M179.238 35.0684C179.238 35.2507 179.17 35.376 179.033 35.4443C178.919 35.5127 178.896 35.6722 178.965 35.9229C178.783 35.9456 178.623 36.0368 178.486 36.1963C178.35 36.3558 178.19 36.4355 178.008 36.4355C177.894 36.4355 177.803 36.3786 177.734 36.2646C177.689 36.4242 177.598 36.5381 177.461 36.6064C177.347 36.6748 177.222 36.7318 177.085 36.7773C176.948 36.8229 176.812 36.8799 176.675 36.9482C176.538 37.0166 176.447 37.1191 176.401 37.2559H176.23C175.957 37.2559 175.741 37.3698 175.581 37.5977C175.444 37.8255 175.273 37.9395 175.068 37.9395C175 37.9395 174.954 37.9281 174.932 37.9053C174.818 37.9281 174.772 37.9964 174.795 38.1104C174.818 38.2471 174.784 38.3382 174.692 38.3838H174.521C173.929 38.3838 173.325 38.5091 172.71 38.7598C172.095 39.0104 171.468 39.2952 170.83 39.6143C170.215 39.9333 169.577 40.2295 168.916 40.5029C168.278 40.7992 167.629 40.9928 166.968 41.084C166.831 41.2207 166.66 41.3232 166.455 41.3916C166.273 41.4827 166.068 41.5511 165.84 41.5967C165.612 41.6423 165.384 41.6878 165.156 41.7334C164.951 41.8018 164.769 41.9043 164.609 42.041C164.04 42.0866 163.47 42.1891 162.9 42.3486C162.331 42.5081 161.761 42.6562 161.191 42.793C160.645 42.9525 160.075 43.0778 159.482 43.1689C158.913 43.2829 158.332 43.3171 157.739 43.2715C157.557 43.4082 157.352 43.5107 157.124 43.5791C156.919 43.6702 156.725 43.7842 156.543 43.9209C155.609 43.7842 154.674 43.6816 153.74 43.6133C152.829 43.5449 151.929 43.3854 151.04 43.1348C151.04 43.0664 151.017 43.0208 150.972 42.998C150.926 42.9753 150.869 42.9525 150.801 42.9297C150.755 42.9297 150.71 42.9069 150.664 42.8613C150.618 42.8385 150.618 42.7816 150.664 42.6904C150.459 42.7588 150.277 42.793 150.117 42.793C149.889 42.793 149.661 42.736 149.434 42.6221C149.229 42.5081 149.001 42.3828 148.75 42.2461C148.522 42.1094 148.283 41.9727 148.032 41.8359C147.782 41.722 147.508 41.665 147.212 41.665C147.03 41.4827 146.859 41.3005 146.699 41.1182C146.562 40.9359 146.46 40.708 146.392 40.4346C146.3 40.4118 146.198 40.4118 146.084 40.4346C145.993 40.4574 145.913 40.4688 145.845 40.4688C145.708 40.4688 145.64 40.4232 145.64 40.332C145.161 39.9902 144.819 39.6257 144.614 39.2383C144.409 38.8509 144.181 38.4066 143.931 37.9053C143.862 37.7458 143.771 37.6091 143.657 37.4951C143.566 37.404 143.498 37.29 143.452 37.1533C143.361 36.9255 143.304 36.6862 143.281 36.4355C143.258 36.1849 143.236 35.9456 143.213 35.7178C143.213 35.4671 143.179 35.2279 143.11 35C143.065 34.7493 142.962 34.5215 142.803 34.3164C142.848 33.4505 142.939 32.5846 143.076 31.7188C143.236 30.8529 143.429 29.987 143.657 29.1211C143.748 28.7337 143.851 28.3577 143.965 27.9932C144.079 27.6286 144.181 27.2526 144.272 26.8652C144.295 26.7285 144.329 26.6374 144.375 26.5918C144.443 26.5234 144.5 26.4779 144.546 26.4551L144.683 26.3525C144.728 26.307 144.762 26.2386 144.785 26.1475L145.059 24.9854C145.241 24.2334 145.48 23.5042 145.776 22.7979C146.073 22.0915 146.471 21.4421 146.973 20.8496C147.018 20.2799 147.144 19.7445 147.349 19.2432C147.576 18.7191 147.827 18.2178 148.101 17.7393C148.374 17.238 148.647 16.748 148.921 16.2695C149.194 15.791 149.411 15.2783 149.57 14.7314L149.536 14.6631C149.536 14.5719 149.582 14.5264 149.673 14.5264C149.787 14.5036 149.867 14.4922 149.912 14.4922C149.935 14.1276 150.015 13.82 150.151 13.5693C150.311 13.2959 150.47 13.0452 150.63 12.8174C150.812 12.5895 150.972 12.3503 151.108 12.0996C151.268 11.8262 151.359 11.5072 151.382 11.1426C151.815 10.8919 152.179 10.5843 152.476 10.2197C152.795 9.83236 153.091 9.44499 153.364 9.05762C153.66 8.64746 153.968 8.26009 154.287 7.89551C154.606 7.50814 154.993 7.20052 155.449 6.97266C155.563 6.83594 155.597 6.64225 155.552 6.3916C156.258 5.86751 156.987 5.40039 157.739 4.99023C158.491 4.58008 159.198 4.10156 159.858 3.55469H161.089C161.385 3.32682 161.715 3.21289 162.08 3.21289C162.354 3.21289 162.616 3.26986 162.866 3.38379C163.14 3.49772 163.39 3.63444 163.618 3.79395C163.869 3.93066 164.119 4.07878 164.37 4.23828C164.621 4.375 164.871 4.47754 165.122 4.5459C165.373 4.8877 165.544 5.28646 165.635 5.74219C165.749 6.17513 165.863 6.58529 165.977 6.97266C165.771 7.58789 165.646 8.22591 165.601 8.88672C165.555 9.52474 165.475 10.1628 165.361 10.8008C165.202 10.9831 165.065 11.1882 164.951 11.416C164.837 11.6211 164.712 11.8376 164.575 12.0654C164.461 12.2705 164.336 12.4756 164.199 12.6807C164.062 12.863 163.88 13.0111 163.652 13.125C163.47 13.7858 163.185 14.3099 162.798 14.6973C162.41 15.0846 162.035 15.5404 161.67 16.0645C161.328 16.2923 160.964 16.4062 160.576 16.4062C160.257 16.4062 159.972 16.3379 159.722 16.2012C159.471 16.0417 159.243 15.848 159.038 15.6201C158.833 15.3695 158.662 15.1074 158.525 14.834C158.411 14.5378 158.32 14.2529 158.252 13.9795C158.411 13.501 158.662 13.0908 159.004 12.749C159.368 12.4072 159.733 12.0654 160.098 11.7236C160.462 11.3818 160.781 11.0173 161.055 10.6299C161.328 10.2425 161.465 9.77539 161.465 9.22852C161.465 9.18294 161.453 9.13737 161.431 9.0918C161.431 9.04622 161.431 9.00065 161.431 8.95508C161.431 8.86393 161.465 8.78418 161.533 8.71582C161.602 8.64746 161.67 8.5905 161.738 8.54492L161.943 8.37402C162.012 8.30566 162.046 8.22591 162.046 8.13477C162.046 8.04362 162 7.95247 161.909 7.86133C161.043 7.92969 160.382 8.0778 159.927 8.30566C159.494 8.53353 159.152 8.78418 158.901 9.05762C158.651 9.33105 158.423 9.60449 158.218 9.87793C158.035 10.1286 157.762 10.3109 157.397 10.4248C157.329 10.6071 157.227 10.7666 157.09 10.9033C156.976 11.0173 156.851 11.1426 156.714 11.2793C156.577 11.3932 156.452 11.5299 156.338 11.6895C156.247 11.849 156.19 12.0426 156.167 12.2705H155.552C155.461 12.4756 155.324 12.6807 155.142 12.8857C154.982 13.068 154.811 13.2503 154.629 13.4326C154.469 13.6149 154.321 13.82 154.185 14.0479C154.071 14.2529 154.036 14.4808 154.082 14.7314C153.831 14.8226 153.638 14.9707 153.501 15.1758C153.387 15.3809 153.216 15.5518 152.988 15.6885V15.8936C152.988 16.0758 152.954 16.2467 152.886 16.4062C152.817 16.5658 152.806 16.7367 152.852 16.9189C152.578 17.1696 152.373 17.4886 152.236 17.876C152.122 18.2406 151.997 18.5824 151.86 18.9014C151.541 19.0609 151.325 19.2773 151.211 19.5508C151.097 19.8242 151.04 20.1432 151.04 20.5078C150.698 20.8496 150.391 21.2484 150.117 21.7041C149.844 22.1598 149.593 22.627 149.365 23.1055C149.16 23.584 148.966 24.0739 148.784 24.5752C148.602 25.0765 148.408 25.5436 148.203 25.9766V26.9678C147.884 27.3324 147.656 27.7653 147.52 28.2666C147.406 28.7451 147.223 29.1781 146.973 29.5654C146.927 29.8161 146.904 30.0667 146.904 30.3174C146.927 30.568 146.938 30.8187 146.938 31.0693C146.938 31.3428 146.916 31.6276 146.87 31.9238C146.825 32.2201 146.745 32.4935 146.631 32.7441C146.722 33.0859 146.79 33.4961 146.836 33.9746C146.882 34.4303 146.961 34.8975 147.075 35.376C147.189 35.8317 147.349 36.2533 147.554 36.6406C147.759 37.0052 148.055 37.2559 148.442 37.3926C148.534 37.8939 148.75 38.2699 149.092 38.5205C149.456 38.7939 149.867 39.0104 150.322 39.1699C150.778 39.3294 151.245 39.4661 151.724 39.5801C152.202 39.7168 152.624 39.8877 152.988 40.0928C153.125 40.0244 153.285 39.9902 153.467 39.9902C153.649 39.9902 153.809 40.013 153.945 40.0586C154.105 40.1042 154.276 40.1497 154.458 40.1953C154.777 40.1497 155.164 40.127 155.62 40.127C156.099 40.127 156.577 40.1042 157.056 40.0586C157.534 40.0358 157.979 39.9788 158.389 39.8877C158.799 39.7966 159.129 39.6257 159.38 39.375C159.539 39.375 159.642 39.4206 159.688 39.5117C159.756 39.6029 159.87 39.6484 160.029 39.6484C160.189 39.6484 160.428 39.6029 160.747 39.5117C161.066 39.4434 161.396 39.3522 161.738 39.2383C162.08 39.1471 162.399 39.0446 162.695 38.9307C163.014 38.8167 163.242 38.7142 163.379 38.623C163.447 38.6458 163.516 38.6572 163.584 38.6572H163.823C164.142 38.6572 164.438 38.6003 164.712 38.4863C164.985 38.3724 165.282 38.3382 165.601 38.3838C166.649 37.8597 167.708 37.404 168.779 37.0166C169.873 36.652 170.978 36.3216 172.095 36.0254C172.231 35.8203 172.391 35.6722 172.573 35.5811C172.778 35.4899 172.995 35.4216 173.223 35.376C173.451 35.3076 173.678 35.262 173.906 35.2393C174.134 35.1937 174.351 35.1367 174.556 35.0684C174.692 35 174.806 34.9202 174.897 34.8291C175.011 34.7152 175.148 34.624 175.308 34.5557C175.467 34.4873 175.638 34.4417 175.82 34.4189C176.025 34.3962 176.219 34.3734 176.401 34.3506C176.606 34.305 176.789 34.248 176.948 34.1797C177.131 34.1113 177.279 33.9974 177.393 33.8379C177.712 33.9746 178.031 34.1227 178.35 34.2822C178.691 34.4417 178.976 34.6696 179.204 34.9658L179.238 35.0684Z" fill="#FF0000"/>
<path d="M221.553 44.6729C221.553 44.9235 221.496 45.1628 221.382 45.3906C220.926 45.6413 220.448 45.8122 219.946 45.9033C219.468 46.0173 218.989 46.0742 218.511 46.0742C218.283 46.0742 218.032 46.0628 217.759 46.04C217.508 46.04 217.28 46.0173 217.075 45.9717C217.007 45.9489 216.927 45.9033 216.836 45.835C216.745 45.7666 216.654 45.7324 216.562 45.7324C216.335 45.7324 216.118 45.7666 215.913 45.835C215.708 45.9261 215.492 45.9717 215.264 45.9717C215.15 45.9717 215.036 45.9375 214.922 45.8691C214.831 45.8008 214.728 45.7552 214.614 45.7324C214.455 45.6868 214.295 45.6755 214.136 45.6982C213.976 45.721 213.805 45.7324 213.623 45.7324C213.372 45.7324 213.145 45.6982 212.939 45.6299C212.757 45.5615 212.586 45.4362 212.427 45.2539C211.857 45.1855 211.299 45.0716 210.752 44.9121C210.205 44.7754 209.658 44.6159 209.111 44.4336C208.564 44.2741 208.018 44.1146 207.471 43.9551C206.924 43.8184 206.366 43.7272 205.796 43.6816C205.659 43.5221 205.5 43.3968 205.317 43.3057C205.135 43.2373 204.998 43.112 204.907 42.9297C204.793 42.9297 204.714 42.9411 204.668 42.9639C204.622 43.0094 204.543 43.0322 204.429 43.0322C204.041 42.7132 203.62 42.4398 203.164 42.2119C202.731 41.9841 202.275 41.7676 201.797 41.5625C201.341 41.3574 200.885 41.1409 200.43 40.9131C199.997 40.708 199.587 40.4346 199.199 40.0928H199.028C198.846 40.1156 198.687 40.07 198.55 39.9561C198.436 39.8649 198.288 39.8193 198.105 39.8193C197.992 39.8193 197.9 39.8307 197.832 39.8535C197.764 39.6712 197.661 39.5231 197.524 39.4092C197.388 39.2952 197.24 39.1813 197.08 39.0674C196.943 38.9762 196.807 38.8737 196.67 38.7598C196.533 38.6686 196.431 38.5433 196.362 38.3838C195.793 38.1787 195.234 37.9281 194.688 37.6318C194.163 37.3584 193.696 36.9938 193.286 36.5381C192.83 36.4925 192.454 36.3558 192.158 36.1279C191.862 35.8773 191.589 35.5697 191.338 35.2051C190.791 35.0228 190.29 34.7835 189.834 34.4873C189.378 34.1911 188.923 33.8835 188.467 33.5645C188.034 33.2454 187.567 32.9606 187.065 32.71C186.587 32.4365 186.04 32.2428 185.425 32.1289C185.402 31.9694 185.334 31.8555 185.22 31.7871C185.106 31.696 184.969 31.6276 184.81 31.582C184.673 31.5137 184.536 31.4567 184.399 31.4111C184.263 31.3656 184.16 31.2744 184.092 31.1377C184.023 31.1377 183.955 31.1377 183.887 31.1377C183.818 31.1149 183.75 31.1035 183.682 31.1035C183.613 31.1035 183.534 31.1149 183.442 31.1377C183.374 31.1377 183.306 31.1377 183.237 31.1377L183.271 31.0352C183.271 30.944 183.237 30.887 183.169 30.8643C183.123 30.8415 183.055 30.8187 182.964 30.7959C182.873 30.7731 182.793 30.7389 182.725 30.6934C182.656 30.6478 182.622 30.5452 182.622 30.3857H182.52C182.269 30.3857 182.041 30.3402 181.836 30.249C181.631 30.1579 181.403 30.0895 181.152 30.0439C181.107 30.2946 181.084 30.5339 181.084 30.7617V31.377C181.084 32.4023 181.198 33.4847 181.426 34.624C181.654 35.7406 182.007 36.7432 182.485 37.6318C182.964 37.8141 183.374 38.0534 183.716 38.3496C184.058 38.6458 184.388 38.9876 184.707 39.375C184.73 39.9902 184.502 40.5029 184.023 40.9131C183.568 41.346 183.032 41.5625 182.417 41.5625C182.075 41.5625 181.756 41.4714 181.46 41.2891C181.187 41.1296 180.959 40.8903 180.776 40.5713C180.64 40.5713 180.514 40.5941 180.4 40.6396C180.286 40.708 180.15 40.7422 179.99 40.7422C179.922 40.7422 179.854 40.7308 179.785 40.708C179.557 40.3206 179.329 39.9788 179.102 39.6826C178.896 39.3864 178.76 38.9876 178.691 38.4863C178.441 38.3724 178.281 38.1673 178.213 37.8711C178.167 37.5749 178.042 37.3356 177.837 37.1533C177.746 36.1279 177.62 35.1025 177.461 34.0771C177.324 33.0518 177.256 32.0264 177.256 31.001C177.256 30.7731 177.267 30.5452 177.29 30.3174C177.313 30.0667 177.336 29.8161 177.358 29.5654C177.313 29.4515 177.244 29.349 177.153 29.2578C177.085 29.1439 177.028 29.0299 176.982 28.916C176.527 29.0299 176.048 29.1439 175.547 29.2578C175.068 29.349 174.578 29.3945 174.077 29.3945C173.758 29.3945 173.371 29.349 172.915 29.2578C172.459 29.1439 172.106 28.9958 171.855 28.8135C171.673 28.6995 171.548 28.4945 171.479 28.1982C171.388 27.8792 171.343 27.6058 171.343 27.3779C171.343 26.9906 171.411 26.6032 171.548 26.2158C171.685 25.8057 171.867 25.4525 172.095 25.1562C173.211 24.7005 174.248 24.1423 175.205 23.4814C176.185 22.8206 177.142 22.1029 178.076 21.3281C178.099 21.1003 178.133 20.8724 178.179 20.6445C178.247 20.4167 178.281 20.1774 178.281 19.9268C178.281 19.6533 178.213 19.3913 178.076 19.1406C178.213 19.0039 178.281 18.833 178.281 18.6279C178.281 18.4001 178.338 18.195 178.452 18.0127V17.8076C178.452 17.7165 178.441 17.6253 178.418 17.5342C178.418 17.443 178.384 17.3519 178.315 17.2607C178.475 16.3721 178.6 15.4948 178.691 14.6289C178.783 13.7402 178.828 12.8288 178.828 11.8945C178.828 11.8262 178.862 11.6439 178.931 11.3477C179.022 11.0286 179.079 10.8122 179.102 10.6982C179.193 10.1742 179.25 9.66146 179.272 9.16016C179.318 8.63607 179.375 8.11198 179.443 7.58789C179.466 7.4056 179.512 7.16634 179.58 6.87012C179.648 6.57389 179.683 6.36881 179.683 6.25488C179.683 6.09538 179.648 5.99284 179.58 5.94727C179.535 5.87891 179.489 5.77637 179.443 5.63965C179.58 5.11556 179.648 4.59147 179.648 4.06738C179.671 3.52051 179.717 2.98503 179.785 2.46094C180.173 2.30143 180.48 2.14193 180.708 1.98242C180.936 1.82292 181.266 1.74316 181.699 1.74316H181.768C181.813 2.0166 181.916 2.27865 182.075 2.5293C182.235 2.75716 182.394 2.99642 182.554 3.24707C182.736 3.47493 182.896 3.7028 183.032 3.93066C183.169 4.13574 183.237 4.34082 183.237 4.5459C183.237 4.93327 183.203 5.35482 183.135 5.81055C183.066 6.26628 183.009 6.68783 182.964 7.0752C182.85 8.10059 182.747 9.11458 182.656 10.1172C182.565 11.097 182.428 12.0996 182.246 13.125C182.314 13.444 182.349 13.7402 182.349 14.0137C182.349 14.4238 182.314 14.834 182.246 15.2441C182.178 15.6543 182.144 16.0758 182.144 16.5088C182.144 16.7139 182.155 16.9303 182.178 17.1582C182.223 17.3861 182.292 17.5911 182.383 17.7734C183.158 17.5684 183.853 17.1468 184.468 16.5088C184.559 16.4176 184.65 16.3037 184.741 16.167C184.855 16.0075 184.969 15.8822 185.083 15.791C185.311 15.6087 185.55 15.4492 185.801 15.3125C186.074 15.153 186.336 14.9935 186.587 14.834C187.179 14.4466 187.749 14.0479 188.296 13.6377C188.866 13.2048 189.435 12.7832 190.005 12.373C191.691 11.1426 193.32 9.86654 194.893 8.54492C196.488 7.20052 198.037 5.78776 199.541 4.30664C199.609 3.91927 199.746 3.61165 199.951 3.38379C200.156 3.15592 200.339 2.88249 200.498 2.56348C200.931 2.40397 201.307 2.16471 201.626 1.8457C201.763 1.89128 201.899 1.92546 202.036 1.94824C202.196 1.94824 202.344 1.94824 202.48 1.94824C202.64 1.94824 202.788 1.95964 202.925 1.98242C203.084 1.98242 203.221 2.0166 203.335 2.08496C203.358 2.42676 203.392 2.73438 203.438 3.00781C203.483 3.28125 203.62 3.54329 203.848 3.79395C203.848 3.83952 203.848 3.88509 203.848 3.93066C203.87 3.97624 203.882 4.02181 203.882 4.06738C203.882 4.31803 203.813 4.52311 203.677 4.68262C203.54 4.84212 203.46 5.03581 203.438 5.26367L201.66 7.04102C201.068 7.63346 200.521 8.27148 200.02 8.95508C199.837 8.97786 199.678 9.03483 199.541 9.12598C199.404 9.21712 199.268 9.31966 199.131 9.43359C199.017 9.52474 198.892 9.61589 198.755 9.70703C198.618 9.79818 198.47 9.86654 198.311 9.91211C197.9 10.459 197.433 10.9603 196.909 11.416C196.385 11.849 195.85 12.2705 195.303 12.6807C194.756 13.0908 194.209 13.5124 193.662 13.9453C193.138 14.3555 192.648 14.8112 192.192 15.3125C191.714 15.5404 191.247 15.8138 190.791 16.1328C190.358 16.429 190.005 16.805 189.731 17.2607H189.561C189.447 17.2607 189.355 17.2949 189.287 17.3633C189.219 17.4089 189.128 17.4316 189.014 17.4316C187.783 18.5026 186.507 19.5166 185.186 20.4736C183.864 21.4079 182.599 22.4333 181.392 23.5498V24.4043C181.779 24.6322 182.201 24.8486 182.656 25.0537C183.112 25.236 183.556 25.4411 183.989 25.6689C184.445 25.8968 184.867 26.1475 185.254 26.4209C185.664 26.6715 186.017 26.9792 186.313 27.3438C186.359 27.321 186.416 27.3096 186.484 27.3096C186.689 27.3096 186.849 27.3779 186.963 27.5146C187.077 27.6286 187.271 27.6628 187.544 27.6172C187.635 27.9818 187.84 28.2438 188.159 28.4033C188.478 28.5628 188.797 28.6995 189.116 28.8135C189.39 29.0869 189.64 29.349 189.868 29.5996C190.096 29.8275 190.426 29.9756 190.859 30.0439C190.905 30.1351 190.939 30.2376 190.962 30.3516C190.985 30.4655 191.03 30.568 191.099 30.6592C191.532 30.7959 191.942 30.9896 192.329 31.2402C192.739 31.4909 193.138 31.7529 193.525 32.0264C193.913 32.277 194.3 32.5277 194.688 32.7783C195.098 33.0062 195.531 33.1885 195.986 33.3252C196.055 33.5531 196.18 33.7126 196.362 33.8037C196.567 33.8949 196.727 34.0316 196.841 34.2139H197.456C197.524 34.3278 197.616 34.4417 197.729 34.5557C197.843 34.6468 197.923 34.7835 197.969 34.9658C198.151 35.0114 198.356 35.0798 198.584 35.1709C198.812 35.2393 199.017 35.3304 199.199 35.4443C199.268 35.5127 199.313 35.5924 199.336 35.6836C199.382 35.7747 199.45 35.8545 199.541 35.9229C199.678 36.0368 199.883 36.1279 200.156 36.1963C200.452 36.2419 200.703 36.3216 200.908 36.4355C201.318 36.6634 201.717 36.9141 202.104 37.1875C202.492 37.4837 202.902 37.7572 203.335 38.0078L204.668 38.7256C204.896 38.8395 205.101 38.9648 205.283 39.1016C205.488 39.2383 205.693 39.3636 205.898 39.4775C206.309 39.6598 206.742 39.7738 207.197 39.8193C207.676 39.8877 208.109 40.013 208.496 40.1953C208.61 40.2637 208.69 40.3434 208.735 40.4346C208.781 40.5485 208.861 40.6396 208.975 40.708C209.157 40.8219 209.442 40.9017 209.829 40.9473C210.216 40.9928 210.535 41.0726 210.786 41.1865C211.105 41.3232 211.413 41.4486 211.709 41.5625C212.028 41.6992 212.347 41.8587 212.666 42.041C213.35 42.0866 214.022 42.1663 214.683 42.2803C215.366 42.3942 216.038 42.5081 216.699 42.6221C217.36 42.736 218.021 42.8385 218.682 42.9297C219.365 43.0208 220.049 43.055 220.732 43.0322C220.732 43.0778 220.755 43.1006 220.801 43.1006C220.869 43.1234 220.926 43.1348 220.972 43.1348C221.131 43.3854 221.268 43.6361 221.382 43.8867C221.496 44.1374 221.553 44.3994 221.553 44.6729Z" fill="#FF0000"/>
</svg>
