<svg width="20" height="20" viewBox="0 0 20 20" fill="none" xmlns="http://www.w3.org/2000/svg">
<path d="M13.2892 11.4427C12.4851 12.4635 11.3099 13.1126 9.99997 13.1126C8.68932 13.1126 7.51489 12.4635 6.71031 11.4419C6.02465 11.7714 5.45444 12.3242 5.11518 13.0378L4.50519 14.3229C5.78766 15.9506 7.77151 17 10 17C12.2278 17 14.2116 15.9506 15.4941 14.3242L14.8835 13.0378C14.5449 12.3241 13.9739 11.772 13.2892 11.4427Z" fill="white"/>
<path d="M10 12.1126C11.8677 12.1126 13.3875 10.3606 13.3875 8.20691C13.3875 6.05322 11.8677 4.30056 10 4.30056C8.13231 4.30056 6.61212 6.05322 6.61212 8.20691C6.61212 10.3606 8.13231 12.1126 10 12.1126ZM10 5.63393C11.1329 5.63393 12.054 6.78755 12.054 8.20691C12.054 9.62489 11.1329 10.7792 10 10.7792C8.86727 10.7792 7.9453 9.62489 7.9453 8.20691C7.9453 6.78755 8.86727 5.63393 10 5.63393Z" fill="white"/>
<path d="M10 0C4.48583 0 0 4.48608 0 9.99992C0 15.5144 4.48583 20 10 20C15.5144 20 20 15.5144 20 9.99992C20 4.48608 15.5144 0 10 0ZM10 18C5.58847 18 2.00002 14.4114 2.00002 9.99992C2.00002 5.58906 5.58851 1.99977 10 1.99977C14.4115 1.99977 18 5.58906 18 9.99992C18 14.4114 14.4115 18 10 18Z" fill="white"/>
</svg>
