<svg width="20" height="20" viewBox="0 0 20 20" fill="none" xmlns="http://www.w3.org/2000/svg">
<path d="M19.718 2.86363C19.4233 2.35027 18.9389 2.04365 18.4214 2.04365H8.6414C8.27637 2.04365 7.98003 2.40171 7.98003 2.84339C7.98003 3.28492 8.27637 3.64297 8.6414 3.64297H18.4213C18.5047 3.64297 18.5835 3.6921 18.6313 3.77612C18.6792 3.8589 18.6902 3.96507 18.661 4.05959L16.8282 10.0227C16.7914 10.1432 16.6945 10.2245 16.5885 10.2245H6.31123L4.67421 1.78095C4.47058 0.732623 3.70637 0 2.81483 0H0.992306C0.443843 0 0 0.536939 0 1.1995C0 1.86222 0.443843 2.39896 0.992306 2.39896H2.75548L4.95974 13.7678C5.15923 14.7955 5.89896 15.5156 6.76739 15.5437C6.25688 15.9916 5.92234 16.7136 5.92234 17.5342C5.92234 18.8962 6.83522 20 7.96194 20C9.08805 20 10.0013 18.8962 10.0013 17.5342C10.0013 16.7166 9.66813 15.9974 9.16158 15.5488H12.9669C12.4596 15.9974 12.1264 16.7166 12.1264 17.5342C12.1264 18.8962 13.0397 20 14.1657 20C15.2925 20 16.206 18.8962 16.206 17.5342C16.206 16.7166 15.8726 15.9974 15.3656 15.5488H16.2905C16.839 15.5488 17.2829 15.0119 17.2829 14.3493C17.2829 13.6867 16.8391 13.1498 16.2905 13.1498H6.87843L6.62131 11.8238H16.5885C17.2442 11.8238 17.8392 11.3245 18.0679 10.5802L19.9014 4.61604C20.081 4.03022 20.0125 3.37477 19.718 2.86363Z" fill="white"/>
</svg>
